<svg width="21" height="20" viewBox="0 0 21 20" fill="none" xmlns="http://www.w3.org/2000/svg">
  <g stroke="#666666" stroke-width="1.55" stroke-linecap="round" stroke-linejoin="round">
    <path d="M11.94 19.15H1.72a.85.85 0 0 1-.85-.85V3.07L3.8.85h11.06c.47 0 .85.38.85.85v5.1"/>
    <path d="M.87 3.5h2.67c.47 0 .85-.38.85-.85V.85"/>
    <circle cx="8.25" cy="6.17" r="2.9"/>
    <path d="M6.85 6.2l.92.76 1.82-2.08"/>
    <path d="M3.14 11.14h7.12M3.14 13.28h4.67M3.14 15.42h4.05M3.14 17.56h4.35"/>
    <path d="M14.98 10.66c.12-1.34.35-2.43.72-3.25.57-1.24 1.67-2.04 3-1.7 1.23.31 1.8 1.63 1.31 2.78-.29.69-.95 1.13-1.57 1.57-.83.59-1.52 1.24-1.92 2.2-.35.83-.47 1.79-.45 2.82"/>
    <path d="M11.98 12.76c1.65.16 3.63.94 5.58 2.2 1.45.93 2.5 1.91 2.63 2.45l-1.15 1.8c-.55.36-1.89.02-3.49-.68-2.02-.88-3.89-2.1-5.01-3.21-.44-.44-.58-.78-.41-1.07l1.08-1.69c.16-.25.42-.32.77-.3Z"/>
    <path d="M10.55 15.34c1.56.15 3.44.89 5.3 2.08 1.35.87 2.39 1.79 2.67 2.31"/>
  </g>
</svg>
