<svg width="20" height="26" viewBox="0 0 20 26" fill="none" xmlns="http://www.w3.org/2000/svg">
<g clip-path="url(#clip0_1_185)">
<path d="M13.7562 24.9464C13.4786 24.9464 13.2534 24.7178 13.2534 24.4358V19.1131C13.2534 18.8311 13.4761 18.6025 13.7562 18.6025H18.997C19.2747 18.6025 19.4998 18.8311 19.4998 19.1131C19.4998 19.3952 19.2772 19.6238 18.997 19.6238H14.259V24.4383C14.259 24.7203 14.0339 24.949 13.7562 24.949V24.9464Z" fill="#666666"/>
<path d="M13.7561 25.4545H4.72798C4.17263 25.4545 3.72485 24.9998 3.72485 24.4358V6.22199C3.72485 5.65797 4.17263 5.2032 4.72798 5.2032H18.9969C19.5522 5.2032 20 5.65797 20 6.22199V19.1131C20 19.385 19.895 19.6416 19.7073 19.8347L14.4666 25.1573C14.279 25.3478 14.0238 25.4545 13.7561 25.4545ZM5.73361 23.417H13.3409L17.9938 18.6914V7.24078H5.73361V23.417Z" fill="#666666"/>
<path d="M12.8105 10.0965H7.67982C7.40214 10.0965 7.177 9.86779 7.177 9.58578C7.177 9.30378 7.39964 9.07512 7.67982 9.07512H12.8105C13.0857 9.07512 13.3133 9.30378 13.3133 9.58578C13.3133 9.86779 13.0882 10.0965 12.8105 10.0965Z" fill="#666666"/>
<path d="M16.1951 12.7794H7.67982C7.40214 12.7794 7.177 12.5507 7.177 12.2687C7.177 11.9867 7.39964 11.758 7.67982 11.758H16.1951C16.4728 11.758 16.698 11.9867 16.698 12.2687C16.698 12.5507 16.4753 12.7794 16.1951 12.7794Z" fill="#666666"/>
<path d="M16.1951 15.4623H7.67982C7.40214 15.4623 7.177 15.2336 7.177 14.9516C7.177 14.6696 7.39964 14.4409 7.67982 14.4409H16.1951C16.4728 14.4409 16.698 14.6696 16.698 14.9516C16.698 15.2336 16.4753 15.4623 16.1951 15.4623Z" fill="#666666"/>
<path d="M11.2445 18.1452H7.67982C7.40214 18.1452 7.177 17.9165 7.177 17.6345C7.177 17.3525 7.39964 17.1238 7.67982 17.1238H11.2445C11.5222 17.1238 11.7474 17.3525 11.7474 17.6345C11.7474 17.9165 11.5247 18.1452 11.2445 18.1452Z" fill="#666666"/>
<path d="M4.4753 21.7783H1.00313C0.44778 21.7783 0 21.3235 0 20.7595V1.90801C0 1.34399 0.44778 0.886673 1.00313 0.886673H15.4171C15.9725 0.886673 16.4203 1.34145 16.4203 1.90546V5.85868C16.4203 6.4227 15.9725 6.87747 15.4171 6.87747C14.8618 6.87747 14.414 6.4227 14.414 5.85868V2.92426H2.00625V19.7381H4.4728C5.02814 19.7381 5.47592 20.1929 5.47592 20.7569C5.47592 21.3209 5.02814 21.7757 4.4728 21.7757L4.4753 21.7783Z" fill="#666666"/>
<path d="M11.1595 4.03452H5.26334C4.16766 4.03452 3.2771 3.13005 3.2771 2.01726C3.2771 0.904463 4.16766 0 5.26334 0H11.1595C12.2552 0 13.1458 0.904463 13.1458 2.01726C13.1458 3.13005 12.2552 4.03452 11.1595 4.03452Z" fill="#666666"/>
</g>
<defs>
<clipPath id="clip0_1_185">
<rect width="20" height="25.4545" fill="white"/>
</clipPath>
</defs>
</svg>
